<svg xmlns="http://www.w3.org/2000/svg" width="18.94" height="16.969"><path d="M5.53 16.978a2.074 2.074 0 110-4.147 2.057 2.057 0 011.46.6 2.031 2.031 0 01.61 1.466 2.07 2.07 0 01-2.07 2.081zm0-2.963a.889.889 0 10.34 1.71.9.9 0 00.55-.824.919.919 0 00-.26-.628.9.9 0 00-.63-.258zm8.39 2.963a2.044 2.044 0 01-1.46-.606 2.068 2.068 0 011.46-3.54 1.954 1.954 0 011.47.6 2.085 2.085 0 01-.67 3.383 2.1 2.1 0 01-.8.163zm0-2.963a.978.978 0 00-.82.548.887.887 0 001.16 1.161.891.891 0 00.29-1.452.9.9 0 00-.63-.257zm-11.27.163a.56.56 0 01-.25-.056.589.589 0 01-.29-.787 3.686 3.686 0 013.05-2.151L4.11 5.793a.591.591 0 111.16-.228l1.09 5.578h9.43l1.8-6.771H4.29A4.346 4.346 0 01.01.679.587.587 0 01.5.006a.6.6 0 01.68.5 3.16 3.16 0 003.11 2.682h14.07a.581.581 0 01.47.232.594.594 0 01.11.513l-2.13 7.956a.589.589 0 01-.57.439H5.88a.037.037 0 00-.02 0 2.66 2.66 0 00-2.68 1.51.586.586 0 01-.53.34z" fill="#243f4d" fill-rule="evenodd"/></svg>